<svg xmlns="http://www.w3.org/2000/svg" viewBox="0 0 200 200" width="200" height="200">
  <defs>
    <radialGradient id="lamp" cx="131" cy="68" r="72" gradientUnits="userSpaceOnUse">
      <stop offset="0" stop-color="#c9a54a" stop-opacity=".35"/>
      <stop offset=".4" stop-color="#c9a54a" stop-opacity=".08"/>
      <stop offset="1" stop-color="#c9a54a" stop-opacity="0"/>
    </radialGradient>
    <pattern id="scan" width="4" height="4" patternUnits="userSpaceOnUse">
      <rect width="4" height="1" fill="#fff" opacity=".035"/>
    </pattern>
  </defs>
  <!-- 夜の道路を映す定点カメラ -->
  <rect width="200" height="200" fill="#0a0b0c"/>
  <rect width="200" height="200" fill="url(#lamp)"/>
  <!-- 道路 -->
  <path d="M84 96L116 96L176 200L24 200Z" fill="#141617"/>
  <path d="M100 100V112M100 122V138M100 150V172M100 186V200" stroke="#c8cbc6" stroke-opacity=".35" stroke-width="2"/>
  <path d="M84 96L24 200M116 96L176 200" stroke="#c8cbc6" stroke-opacity=".18"/>
  <!-- 街灯 -->
  <path d="M146 136V64H132" stroke="#2a2c2d" stroke-width="2" fill="none"/>
  <rect x="126" y="62" width="10" height="4" rx="1" fill="#e9d79a"/>
  <!-- 画面のノイズ -->
  <rect width="200" height="200" fill="url(#scan)"/>
  <!-- ファインダーの枠 -->
  <path d="M14 30V14H30M170 14H186V30M186 170V186H170M30 186H14V170" stroke="#c8cbc6" stroke-opacity=".7" stroke-width="2" fill="none"/>
  <circle cx="30" cy="34" r="4" fill="#d23a3a"/>
  <text x="40" y="38" font-family="ui-monospace,Menlo,monospace" font-size="11" fill="#c8cbc6" fill-opacity=".85">REC</text>
  <text x="186" y="178" text-anchor="end" font-family="ui-monospace,Menlo,monospace" font-size="10" fill="#c9a54a" fill-opacity=".85">DAY 1  02:13</text>
</svg>
